# xmcd CD database file
#
# Track frame offsets:
#	150
#	18652
#	40036
#	53823
#	74486
#	104606
#	126899
#	155797
#	178702
#	196372
#	215991
#	237458
#	258080
#	282115
#	313409
#
# Disc length: 4588 seconds
#
# Revision: 0
# Processed by: cddbd v1.5PL3 Copyright (c) Steve Scherf et al.
# Submitted via: CDex 1.51
#
DISCID=ec11ea0f
DTITLE=Various Artist - jazzer's lounge - first trial
DYEAR=2004
DGENRE=Jazz
TTITLE0=one (sven galy's flamish shuffle) - hooverphonic
TTITLE1=rain - gaelle
TTITLE2=sai das trevas - jazzamor
TTITLE3=jazzy vibe (volker mitz remix) - phonique
TTITLE4=nowhere (speakeasy remix) - aquanote
TTITLE5=elevator - jaffa
TTITLE6=superworld - mo'horuins
TTITLE7=nota bossa - the funky lowlives
TTITLE8=papadam - yonderboi
TTITLE9=april fool von beady belle
TTITLE10=my movie is like a life - future loop foundation
TTITLE11=secret emotions - edvin marton
TTITLE12=mensch - frank chastenier feat. h. groenemeyer
TTITLE13=sand (reprise) - max melvin
TTITLE14=meltin guitar - belladonna
EXTD=YEAR: 2004
EXTT0=
EXTT1=
EXTT2=
EXTT3=
EXTT4=
EXTT5=
EXTT6=
EXTT7=
EXTT8=
EXTT9=
EXTT10=
EXTT11=
EXTT12=
EXTT13=
EXTT14=
PLAYORDER=
